<?xml version="1.0" encoding="utf-8"?>
<!-- Generator: Adobe Illustrator 28.0.0, SVG Export Plug-In . SVG Version: 6.00 Build 0)  -->
<svg version="1.1" id="Layer_1" xmlns="http://www.w3.org/2000/svg" xmlns:xlink="http://www.w3.org/1999/xlink" x="0px" y="0px"
	 viewBox="0 0 144 72" style="enable-background:new 0 0 144 72;" xml:space="preserve">
<style type="text/css">
	.st0{fill:#414142;}
	.st1{fill:#39658B;stroke:#FFFFFF;stroke-width:0.76;stroke-miterlimit:10;}
	.st2{fill:#F48030;stroke:#FFFFFF;stroke-width:0.7919;stroke-miterlimit:10;}
	.st3{fill:#5898D1;stroke:#FFFFFF;stroke-width:0.76;stroke-miterlimit:10;}
	.st4{fill:#6DAFE0;stroke:#FFFFFF;stroke-width:0.76;stroke-miterlimit:10;}
	.st5{fill:#4680AF;stroke:#FFFFFF;stroke-width:0.76;stroke-miterlimit:10;}
	.st6{fill:#1F486A;}
	.st7{fill:#FFFFFF;}
</style>
<g>
	<path class="st0" d="M63.88,43.21c-1.36,1.9-3.83,3.17-6.95,3.17c-5.1,0-8.61-3.49-8.61-8.58c0-5.1,3.51-8.58,8.61-8.58
		c2.82,0,5.12,1.01,6.65,2.82c0.25,0.3,0.45,0.67,0.45,1.11c0,0.84-0.62,1.43-1.43,1.43c-0.54,0-0.94-0.22-1.24-0.59
		c-0.99-1.29-2.47-2.08-4.4-2.08c-3.31,0-5.61,2.4-5.61,5.89c0,3.49,2.3,5.89,5.61,5.89c2.03,0,3.59-0.84,4.6-2.33
		c0.27-0.37,0.72-0.59,1.21-0.59c0.87,0,1.43,0.59,1.43,1.43C64.2,42.59,64.08,42.94,63.88,43.21z"/>
	<path class="st0" d="M84.59,31.34v13.31c0,0.99-0.57,1.58-1.48,1.58c-0.89,0-1.46-0.59-1.46-1.58V34.53h-0.05l-4.7,7.64
		c-0.32,0.54-0.79,0.87-1.38,0.87s-1.06-0.32-1.36-0.82l-4.87-7.77h-0.05v10.22c0,0.96-0.54,1.56-1.46,1.56
		c-0.89,0-1.43-0.59-1.43-1.56V31.41c0-1.14,0.67-2.05,1.9-2.05c0.79,0,1.41,0.3,1.95,1.16l5.29,8.66l5.32-8.63
		c0.54-0.89,1.14-1.19,1.93-1.19C83.92,29.36,84.59,30.22,84.59,31.34z"/>
	<path class="st0" d="M95.7,29.21c5.12,0,8.63,3.49,8.63,8.58c0,5.09-3.51,8.58-8.63,8.58s-8.63-3.49-8.63-8.58
		C87.07,32.7,90.58,29.21,95.7,29.21z M95.7,43.68c3.31,0,5.61-2.4,5.61-5.89c0-3.49-2.3-5.89-5.61-5.89s-5.61,2.4-5.61,5.89
		C90.08,41.28,92.38,43.68,95.7,43.68z"/>
	<path class="st0" d="M120.73,43.68c0.27,0.35,0.4,0.69,0.4,1.09c0,0.89-0.57,1.46-1.48,1.46c-0.52,0-0.94-0.25-1.26-0.67l-4.3-5.57
		h-4.33v4.65c0,0.99-0.54,1.58-1.46,1.58c-0.94,0-1.48-0.59-1.48-1.58V31.09c0-0.99,0.59-1.58,1.58-1.58h7
		c3.64,0,5.59,1.76,5.59,5.07c0,2.7-1.24,4.4-3.51,5v0.05L120.73,43.68z M115.09,37.3c1.88,0,2.87-0.92,2.87-2.55
		c0-1.66-0.99-2.55-2.87-2.55h-5.34v5.1H115.09z"/>
	<path class="st0" d="M136.02,43.38c0.89,0,1.46,0.5,1.46,1.34s-0.57,1.36-1.46,1.36h-10.93c-0.99,0-1.58-0.59-1.58-1.58V31.09
		c0-0.99,0.59-1.58,1.58-1.58h10.93c0.89,0,1.46,0.52,1.46,1.36c0,0.84-0.57,1.34-1.46,1.34h-9.57v4.2h7.74
		c0.92,0,1.46,0.52,1.46,1.34s-0.54,1.34-1.46,1.34h-7.74v4.3H136.02z"/>
</g>
<path class="st1" d="M36.85,28.29l-10.07,9.23l-10.21-9.34c2.46-2.8,6.07-4.57,10.09-4.57C30.74,23.61,34.39,25.42,36.85,28.29z"/>
<path class="st2" d="M43.37,22.34l-6.09,5.58c-2.57-2.99-6.37-4.88-10.61-4.88c-4.19,0-7.95,1.84-10.52,4.76l-6.09-5.58
	c0-0.01,0-0.01,0.02-0.02c0.25-0.28,0.51-0.55,0.77-0.82c0.27-0.28,0.55-0.54,0.83-0.8c0.93-0.86,1.92-1.62,2.99-2.3
	c0.19-0.13,0.39-0.25,0.59-0.36c0.26-0.16,0.52-0.31,0.79-0.45c0.23-0.13,0.46-0.25,0.69-0.36c0.17-0.1,0.35-0.18,0.53-0.26
	c0.24-0.11,0.48-0.22,0.73-0.32c0.66-0.28,1.32-0.52,2.01-0.74c0.05-0.02,0.1-0.03,0.13-0.04c0.31-0.1,0.62-0.18,0.93-0.26
	c0.29-0.08,0.59-0.15,0.9-0.21c0.15-0.03,0.29-0.06,0.44-0.09c0.33-0.07,0.67-0.13,1.01-0.17c0.27-0.04,0.54-0.08,0.81-0.1
	c0.06-0.01,0.11-0.02,0.16-0.02c0.38-0.04,0.75-0.07,1.13-0.09c0.38-0.02,0.76-0.03,1.15-0.03C33.32,14.79,39.3,17.71,43.37,22.34z"
	/>
<path class="st3" d="M36.41,46.33c-2.45,2.58-5.91,4.18-9.74,4.18c-3.78,0-7.2-1.56-9.64-4.07l9.75-8.93L36.41,46.33z"/>
<path class="st2" d="M42.9,52.29c-4.05,4.34-9.82,7.05-16.23,7.05c-6.36,0-12.09-2.66-16.13-6.93l6.09-5.57
	c2.54,2.61,6.11,4.24,10.04,4.24c4,0,7.6-1.67,10.15-4.36L42.9,52.29z"/>
<path class="st4" d="M26.78,37.51l-9.75,8.93c-2.36-2.42-3.82-5.73-3.82-9.39c0-3.41,1.27-6.52,3.36-8.88L26.78,37.51z"/>
<path class="st2" d="M16.62,46.84l-6.09,5.57c-0.24-0.25-0.48-0.51-0.7-0.77c-0.21-0.24-0.42-0.48-0.62-0.74
	c-0.06-0.06-0.1-0.11-0.13-0.17c-0.16-0.19-0.3-0.39-0.45-0.59c-0.28-0.37-0.53-0.74-0.77-1.13c-0.16-0.24-0.31-0.48-0.45-0.74
	c-0.17-0.29-0.33-0.57-0.48-0.87c-0.02-0.03-0.04-0.06-0.05-0.09c-0.15-0.29-0.3-0.59-0.44-0.89c-0.14-0.31-0.29-0.63-0.41-0.94
	C6.03,45.45,6.01,45.43,6,45.4c-0.11-0.29-0.22-0.58-0.32-0.87c-0.03-0.06-0.05-0.12-0.06-0.18c-0.1-0.27-0.18-0.53-0.26-0.81
	c-0.1-0.31-0.19-0.63-0.27-0.93c-0.05-0.19-0.1-0.38-0.13-0.57c-0.05-0.21-0.1-0.42-0.13-0.63c-0.14-0.7-0.25-1.43-0.32-2.15
	c-0.07-0.72-0.11-1.46-0.11-2.2c0-5.7,2.15-10.9,5.67-14.83l6.09,5.58c-2.18,2.46-3.5,5.7-3.5,9.26
	C12.65,40.87,14.16,44.31,16.62,46.84z"/>
<path class="st5" d="M40.11,37.06c0,3.59-1.41,6.86-3.7,9.27l-9.63-8.82l10.07-9.23C38.88,30.63,40.11,33.7,40.11,37.06z"/>
<path class="st6" d="M36.82,46.72l6.08,5.57c-4.05,4.34-9.82,7.05-16.23,7.05c-6.36,0-12.09-2.66-16.13-6.93
	c-0.24-0.25-0.48-0.51-0.7-0.77c-0.21-0.24-0.42-0.48-0.62-0.74c-0.06-0.06-0.1-0.11-0.13-0.17c-0.16-0.19-0.3-0.39-0.45-0.59
	c-0.28-0.37-0.53-0.74-0.77-1.13c-0.16-0.24-0.31-0.48-0.45-0.74c-0.17-0.29-0.33-0.57-0.48-0.87c-0.02-0.03-0.04-0.06-0.05-0.09
	c-0.15-0.29-0.3-0.59-0.44-0.89c-0.14-0.31-0.29-0.63-0.41-0.94C6.03,45.45,6.01,45.43,6,45.4c-0.11-0.29-0.22-0.58-0.32-0.87
	c-0.03-0.06-0.05-0.12-0.06-0.18c-0.1-0.27-0.18-0.53-0.26-0.81c-0.1-0.31-0.19-0.63-0.27-0.93c-0.05-0.19-0.1-0.38-0.13-0.57
	c-0.05-0.21-0.1-0.42-0.13-0.63c-0.14-0.7-0.25-1.43-0.32-2.15c-0.07-0.73-0.11-1.46-0.11-2.2c0-5.7,2.15-10.9,5.67-14.83
	c0-0.01,0-0.01,0.02-0.02c0.25-0.28,0.51-0.55,0.77-0.82c0.27-0.28,0.55-0.54,0.83-0.8c0.93-0.86,1.92-1.62,2.99-2.3
	c0.19-0.13,0.39-0.25,0.59-0.36c0.26-0.16,0.52-0.31,0.79-0.45c0.23-0.13,0.46-0.25,0.69-0.36c0.17-0.1,0.35-0.18,0.53-0.26
	c0.24-0.11,0.48-0.22,0.73-0.32c0.66-0.28,1.33-0.52,2.01-0.74c0.05-0.02,0.1-0.03,0.13-0.04c0.31-0.1,0.62-0.18,0.93-0.26
	c0.29-0.08,0.59-0.15,0.9-0.21c0.15-0.03,0.29-0.06,0.44-0.09c0.33-0.07,0.67-0.13,1.01-0.17c0.27-0.04,0.54-0.08,0.81-0.1
	c0.06-0.01,0.11-0.02,0.16-0.02c0.38-0.04,0.75-0.07,1.13-0.09c0.38-0.02,0.76-0.03,1.15-0.03c6.66,0,12.63,2.92,16.7,7.55
	l-6.09,5.58c-2.57-2.99-6.37-4.88-10.61-4.88c-4.19,0-7.95,1.84-10.52,4.76c-2.18,2.46-3.5,5.7-3.5,9.26c0,3.81,1.51,7.25,3.98,9.78
	c2.54,2.61,6.11,4.24,10.04,4.24C30.66,51.07,34.27,49.4,36.82,46.72z"/>
<circle class="st7" cx="26.79" cy="37.78" r="4.61"/>
</svg>
